<?xml version="1.0" standalone="no"?>
<!DOCTYPE svg PUBLIC "-//W3C//DTD SVG 20010904//EN"
 "http://www.w3.org/TR/2001/REC-SVG-20010904/DTD/svg10.dtd">
<svg version="1.0" xmlns="http://www.w3.org/2000/svg"
 width="1300.000000pt" height="1300.000000pt" viewBox="0 0 1300.000000 1300.000000"
 preserveAspectRatio="xMidYMid meet">
<metadata>
Created by potrace 1.14, written by Peter Selinger 2001-2017
</metadata>
<g transform="translate(0.000000,1300.000000) scale(0.100000,-0.100000)"
fill="#000000" stroke="none">
<path d="M6415 12715 c-80 -18 -146 -55 -205 -114 -65 -66 -98 -129 -113 -217
-47 -271 199 -513 470 -463 262 49 408 343 288 580 -81 158 -273 252 -440 214z"/>
<path d="M5460 12632 c-166 -12 -299 -114 -357 -272 -22 -59 -25 -181 -6 -251
15 -52 57 -120 106 -168 41 -42 138 -96 187 -106 190 -39 371 48 456 220 74
151 46 331 -72 452 -87 88 -201 134 -314 125z"/>
<path d="M7444 12629 c-221 -28 -385 -263 -334 -481 87 -374 586 -437 755 -95
76 153 52 320 -62 448 -93 103 -214 146 -359 128z"/>
<path d="M8402 12364 c-150 -31 -267 -144 -308 -297 -16 -63 -11 -180 12 -237
149 -381 691 -335 774 65 18 86 7 166 -35 251 -83 170 -258 256 -443 218z"/>
<path d="M4381 12350 c-247 -88 -349 -351 -228 -586 21 -40 83 -105 132 -137
214 -140 514 -39 600 203 56 157 0 351 -132 454 -100 78 -259 106 -372 66z"/>
<path d="M9325 11939 c-197 -43 -326 -208 -320 -410 13 -427 596 -539 769
-148 113 255 -70 551 -349 563 -33 2 -78 -1 -100 -5z"/>
<path d="M3499 11931 c-57 -12 -143 -58 -186 -99 -81 -76 -122 -164 -128 -272
-7 -119 33 -225 115 -307 160 -159 410 -162 567 -5 50 50 96 129 111 188 4 16
7 67 7 114 -1 74 -5 94 -32 152 -65 139 -195 227 -343 234 -41 1 -91 -1 -111
-5z"/>
<path d="M6430 11779 c-108 -21 -207 -97 -258 -199 -24 -48 -27 -67 -27 -150
0 -84 3 -102 28 -152 133 -270 507 -270 643 0 25 51 28 67 28 152 0 84 -3 102
-28 152 -71 146 -229 226 -386 197z"/>
<path d="M5521 11689 c-94 -33 -156 -90 -203 -187 -85 -175 -5 -393 175 -472
100 -44 202 -42 301 5 87 43 151 115 182 207 18 55 22 184 6 215 -5 10 -16 34
-25 53 -26 60 -93 127 -165 162 -83 41 -184 47 -271 17z"/>
<path d="M7227 11690 c-78 -30 -124 -69 -178 -150 -114 -172 -39 -419 154
-505 164 -74 355 -17 447 133 114 185 45 416 -152 511 -50 24 -73 28 -141 29
-57 0 -97 -5 -130 -18z"/>
<path d="M4692 11465 c-249 -90 -319 -402 -131 -586 179 -176 464 -122 572
109 26 55 30 76 30 143 -1 66 -6 89 -31 144 -81 172 -267 252 -440 190z"/>
<path d="M8060 11468 c-87 -30 -177 -117 -209 -202 -54 -146 -21 -289 94 -395
61 -56 124 -82 213 -89 115 -8 216 34 294 122 91 103 110 272 43 395 -87 159
-264 228 -435 169z"/>
<path d="M10187 11363 c-3 -2 -15 -5 -28 -7 -58 -7 -137 -47 -197 -101 -37
-33 -63 -69 -89 -124 -35 -71 -37 -82 -37 -171 0 -85 4 -102 32 -163 54 -118
181 -218 295 -233 82 -11 103 -10 169 7 140 35 240 128 287 265 23 69 23 193
-2 259 -43 117 -139 211 -257 250 -45 15 -164 27 -173 18z"/>
<path d="M2660 11343 c-80 -20 -133 -50 -190 -106 -137 -137 -156 -341 -49
-509 41 -64 90 -105 169 -142 59 -28 74 -31 166 -31 96 0 103 2 176 38 145 71
228 206 226 367 -3 257 -249 447 -498 383z"/>
<path d="M3961 11113 c-220 -45 -340 -265 -260 -479 33 -88 122 -173 212 -202
37 -12 89 -22 116 -22 72 0 165 32 219 76 60 49 66 57 102 131 126 259 -106
554 -389 496z"/>
<path d="M8905 11125 c-5 -1 -30 -8 -55 -16 -95 -28 -184 -112 -221 -208 -65
-173 8 -364 172 -447 69 -34 136 -44 223 -30 58 9 89 22 136 55 248 178 187
547 -106 636 -44 13 -122 19 -149 10z"/>
<path d="M6403 10905 c-217 -66 -287 -345 -127 -509 137 -141 368 -115 480 53
24 37 27 47 42 126 9 45 -6 134 -30 180 -65 124 -229 192 -365 150z"/>
<path d="M5705 10845 c-19 -7 -35 -11 -35 -9 0 2 -22 -10 -50 -27 -205 -126
-191 -425 24 -537 67 -34 187 -38 256 -7 65 28 129 91 160 158 53 111 24 265
-66 347 -77 69 -206 103 -289 75z"/>
<path d="M7137 10849 c-59 -13 -109 -43 -154 -91 -140 -153 -93 -393 95 -485
47 -23 70 -28 132 -27 126 0 218 58 276 174 23 45 28 68 27 130 0 91 -26 153
-90 218 -73 73 -182 103 -286 81z"/>
<path d="M7859 10669 c-107 -16 -192 -80 -238 -179 -67 -145 0 -330 144 -400
175 -85 383 12 435 202 44 162 -76 350 -237 373 -21 3 -42 7 -48 9 -5 1 -31
-1 -56 -5z"/>
<path d="M4977 10646 c-84 -35 -120 -68 -164 -151 -24 -43 -27 -62 -27 -135 0
-72 4 -93 26 -136 86 -164 290 -219 448 -119 155 99 181 327 52 464 -89 94
-222 125 -335 77z"/>
<path d="M10850 10634 c-115 -31 -206 -109 -263 -224 -29 -59 -32 -72 -32
-165 1 -90 3 -106 31 -165 38 -81 111 -157 186 -194 71 -35 103 -41 203 -40
69 0 89 5 148 33 152 73 237 212 232 381 -5 173 -108 309 -276 366 -81 27
-148 30 -229 8z"/>
<path d="M1939 10625 c-244 -66 -370 -331 -266 -558 42 -93 126 -171 227 -212
68 -27 199 -29 270 -3 202 75 309 272 260 478 -40 172 -193 298 -370 305 -41
2 -96 -3 -121 -10z"/>
<path d="M9587 10628 c-151 -32 -265 -169 -275 -328 -7 -131 48 -242 157 -314
181 -120 417 -55 517 143 26 50 29 66 29 151 0 83 -3 102 -27 150 -74 149
-243 232 -401 198z"/>
<path d="M3206 10606 c-78 -27 -157 -100 -199 -180 -28 -55 -31 -70 -31 -151
0 -103 18 -156 80 -232 80 -97 222 -146 348 -120 93 20 198 102 241 191 98
200 -14 448 -226 503 -59 15 -155 10 -213 -11z"/>
<path d="M4369 10356 c-235 -60 -315 -345 -145 -517 184 -187 509 -58 522 205
9 200 -184 360 -377 312z"/>
<path d="M8489 10365 c-3 -2 -14 -6 -25 -8 -42 -8 -77 -29 -123 -72 -65 -61
-94 -128 -95 -221 -2 -171 132 -306 303 -307 204 -1 353 194 296 389 -28 98
-94 169 -193 207 -39 16 -152 24 -163 12z"/>
<path d="M6422 10130 c-78 -18 -158 -102 -179 -186 -34 -136 53 -282 186 -314
168 -40 322 80 323 251 2 170 -157 290 -330 249z"/>
<path d="M5822 10071 c-230 -81 -230 -406 0 -487 96 -34 191 -12 264 61 103
103 107 246 10 362 -59 70 -179 98 -274 64z"/>
<path d="M6997 10076 c-171 -62 -230 -275 -112 -414 96 -114 274 -120 381 -13
52 51 69 96 69 181 0 116 -45 188 -148 235 -59 28 -130 32 -190 11z"/>
<path d="M10161 10009 c-97 -34 -162 -91 -209 -186 -19 -37 -25 -60 -36 -143
-2 -14 3 -51 11 -83 38 -165 179 -278 348 -279 230 -2 404 227 340 448 -26 89
-60 138 -138 198 -79 60 -218 80 -316 45z"/>
<path d="M2615 10004 c-306 -98 -336 -519 -46 -662 49 -24 68 -27 151 -27 84
0 102 3 152 28 76 37 134 97 171 176 26 56 31 76 30 146 0 70 -5 90 -31 146
-38 80 -83 126 -163 169 -75 40 -183 50 -264 24z"/>
<path d="M9069 9951 c-121 -30 -208 -120 -234 -240 -13 -61 4 -155 38 -212
129 -215 441 -198 545 29 56 124 26 262 -79 356 -45 42 -70 53 -150 71 -48 10
-66 9 -120 -4z"/>
<path d="M3858 9955 c-2 -2 -21 -4 -43 -6 -63 -5 -146 -47 -192 -99 -13 -14
-35 -50 -49 -80 -89 -183 40 -403 253 -434 39 -5 125 14 172 38 55 29 118 101
141 163 42 113 9 258 -75 332 -33 28 -135 87 -135 77 0 -2 -16 0 -34 4 -19 4
-36 6 -38 5z"/>
<path d="M5291 9929 c-23 -5 -62 -19 -85 -33 -81 -48 -118 -111 -122 -210 -6
-133 68 -232 196 -264 96 -24 209 18 267 100 39 53 45 72 48 148 6 161 -143
288 -304 259z"/>
<path d="M7570 9925 c-107 -34 -174 -131 -174 -250 0 -108 49 -185 148 -231
123 -57 273 -6 337 116 33 62 33 176 2 236 -24 44 -75 94 -123 119 -44 23
-136 27 -190 10z"/>
<path d="M11416 9799 c-169 -57 -274 -196 -281 -369 -4 -114 35 -217 113 -296
199 -203 532 -145 655 114 30 62 32 75 32 167 -1 86 -5 108 -27 157 -34 74
-71 122 -126 164 -98 75 -252 101 -366 63z"/>
<path d="M1385 9800 c-104 -16 -227 -104 -278 -198 -149 -274 43 -600 353
-600 195 0 367 143 395 329 4 24 8 50 9 58 2 13 -7 76 -18 130 -8 34 -43 100
-78 144 -83 104 -239 160 -383 137z"/>
<path d="M4755 9680 c-49 -11 -110 -47 -143 -85 -113 -128 -73 -330 81 -404
160 -76 349 30 370 209 19 166 -145 315 -308 280z"/>
<path d="M8097 9675 c-166 -61 -222 -265 -113 -408 33 -43 112 -86 171 -94
215 -26 366 218 247 399 -65 100 -195 143 -305 103z"/>
<path d="M6455 9450 c-105 -23 -177 -115 -170 -218 9 -127 113 -214 237 -198
208 28 250 304 61 400 -18 9 -33 15 -33 12 0 -2 -15 -1 -32 3 -18 4 -46 4 -63
1z"/>
<path d="M9628 9455 c-1 -1 -19 -5 -38 -8 -132 -17 -238 -136 -248 -277 -20
-306 365 -450 549 -206 97 128 77 310 -46 419 -21 19 -100 59 -125 64 -37 6
-88 11 -92 8z"/>
<path d="M3252 9428 c-73 -22 -143 -81 -180 -152 -22 -43 -26 -64 -26 -136 -1
-102 23 -160 91 -227 61 -58 132 -83 226 -79 295 13 399 392 154 559 -77 52
-169 65 -265 35z"/>
<path d="M6940 9409 c-102 -19 -167 -86 -177 -183 -7 -65 9 -116 51 -164 113
-129 327 -72 363 98 12 56 -5 127 -40 174 -42 54 -130 88 -197 75z"/>
<path d="M5925 9386 c-166 -80 -152 -319 22 -387 64 -25 167 -1 222 51 58 56
77 160 42 235 -51 111 -174 154 -286 101z"/>
<path d="M8612 9345 c-243 -55 -273 -393 -43 -491 44 -19 135 -25 176 -11 76
25 157 107 173 173 7 31 7 129 0 154 -35 124 -174 204 -306 175z"/>
<path d="M4267 9338 c-77 -16 -141 -67 -178 -140 -31 -60 -31 -167 -1 -226 61
-115 184 -170 308 -135 106 31 189 140 186 249 -3 166 -154 287 -315 252z"/>
<path d="M10680 9315 c-103 -27 -184 -95 -233 -195 -29 -57 -32 -74 -32 -150
0 -70 5 -95 27 -141 165 -357 684 -240 680 153 -3 219 -228 389 -442 333z"/>
<path d="M2150 9306 c-135 -35 -237 -137 -268 -264 -8 -35 -8 -139 2 -176 23
-92 100 -183 194 -228 161 -76 365 -16 452 135 68 118 72 236 11 356 -68 133
-247 214 -391 177z"/>
<path d="M5496 9277 c-59 -15 -131 -90 -144 -151 -31 -146 77 -272 222 -260
93 7 166 71 188 162 14 62 5 108 -32 163 -51 77 -139 109 -234 86z"/>
<path d="M7360 9277 c-141 -51 -183 -229 -80 -341 48 -51 99 -70 174 -64 209
17 261 299 72 393 -55 28 -111 31 -166 12z"/>
<path d="M5076 9075 c-58 -15 -92 -39 -131 -94 -25 -36 -29 -50 -29 -109 0
-56 5 -74 27 -109 90 -141 297 -133 368 14 79 163 -62 342 -235 298z"/>
<path d="M7783 9071 c-207 -94 -145 -401 81 -403 196 -2 289 247 139 371 -63
52 -148 64 -220 32z"/>
<path d="M9026 8929 c-121 -29 -204 -144 -198 -272 4 -79 66 -173 139 -210
102 -52 233 -29 309 55 49 55 66 101 67 178 1 165 -155 288 -317 249z"/>
<path d="M3813 8908 c-173 -64 -221 -288 -90 -423 100 -103 276 -100 373 7 49
55 67 101 67 178 1 180 -178 302 -350 238z"/>
<path d="M11865 8885 c-27 -8 -53 -14 -56 -15 -23 -1 -130 -87 -162 -129 -205
-270 -5 -661 330 -647 99 4 137 17 215 69 117 78 185 213 175 351 -6 88 -9
101 -40 162 -87 169 -286 259 -462 209z"/>
<path d="M920 8870 c-69 -21 -94 -34 -147 -77 -150 -121 -189 -347 -89 -517
13 -23 47 -63 74 -88 123 -115 301 -140 453 -65 68 34 109 70 153 135 158 236
35 549 -245 620 -54 14 -138 11 -199 -8z"/>
<path d="M9975 8857 c-66 -22 -99 -43 -142 -90 -142 -154 -89 -402 105 -490
72 -32 179 -29 256 9 108 53 169 151 169 274 0 85 -20 140 -79 208 -68 80
-211 121 -309 89z"/>
<path d="M2855 8846 c-66 -21 -100 -43 -147 -95 -133 -148 -89 -383 89 -472
113 -57 235 -46 331 31 89 69 133 197 109 311 -16 79 -91 170 -170 207 -56 26
-156 35 -212 18z"/>
<path d="M6424 8846 c-99 -43 -123 -188 -43 -263 74 -70 192 -59 249 24 35 52
34 137 -2 185 -48 63 -133 85 -204 54z"/>
<path d="M6068 8820 c-74 -23 -117 -83 -115 -162 4 -123 120 -192 231 -139 60
29 88 76 89 146 1 43 -4 60 -27 89 -44 59 -116 86 -178 66z"/>
<path d="M6823 8823 c-32 -6 -91 -69 -102 -109 -22 -80 11 -159 82 -193 72
-34 164 -11 210 53 32 45 31 138 -2 185 -39 54 -111 79 -188 64z"/>
<path d="M8196 8805 c-56 -19 -86 -45 -119 -98 -70 -112 -4 -270 127 -307 161
-45 308 112 255 271 -37 109 -157 170 -263 134z"/>
<path d="M4678 8801 c-174 -56 -209 -282 -59 -381 24 -17 56 -31 70 -32 14 0
33 -2 41 -2 36 -4 96 17 132 46 121 95 102 284 -35 354 -35 19 -113 26 -149
15z"/>
<path d="M5682 8714 c-43 -18 -68 -43 -87 -87 -30 -73 -12 -146 49 -192 106
-81 257 -8 260 123 1 58 -18 96 -65 134 -41 33 -108 43 -157 22z"/>
<path d="M7195 8722 c-92 -32 -137 -139 -94 -226 8 -16 31 -43 51 -59 32 -25
47 -30 92 -30 70 0 117 28 147 89 38 80 6 180 -69 217 -30 15 -96 19 -127 9z"/>
<path d="M5346 8555 c-67 -23 -107 -77 -111 -150 -6 -92 66 -167 160 -167 102
0 176 86 160 188 -14 97 -116 161 -209 129z"/>
<path d="M7540 8563 c-59 -22 -110 -94 -110 -154 0 -48 36 -115 75 -139 106
-65 242 2 251 124 7 92 -70 176 -161 175 -22 0 -47 -3 -55 -6z"/>
<path d="M11060 8541 c-154 -32 -272 -169 -283 -326 -19 -272 265 -461 513
-342 52 25 130 99 156 148 37 72 50 184 29 264 -28 109 -130 215 -236 245 -49
14 -139 20 -179 11z"/>
<path d="M1803 8529 c-166 -32 -284 -170 -289 -338 -5 -148 66 -265 200 -331
175 -86 385 -11 474 169 24 49 27 68 27 151 0 84 -3 102 -28 150 -73 146 -232
229 -384 199z"/>
<path d="M8543 8470 c-118 -28 -185 -157 -142 -274 32 -88 102 -138 193 -138
125 0 217 94 212 216 -5 140 -125 229 -263 196z"/>
<path d="M4299 8443 c-57 -32 -84 -64 -104 -122 -32 -98 12 -204 107 -252 44
-23 127 -28 170 -11 15 6 45 28 67 48 68 61 86 166 43 250 -53 102 -185 143
-283 87z"/>
<path d="M9408 8455 c-2 -2 -16 -5 -33 -8 -111 -15 -206 -127 -207 -241 0 -84
16 -128 67 -185 113 -125 319 -108 408 34 84 133 34 307 -107 375 -37 17 -119
33 -128 25z"/>
<path d="M3503 8435 c-110 -33 -182 -119 -191 -230 -17 -203 201 -345 379
-249 55 30 105 89 126 150 16 46 10 140 -12 187 -53 112 -188 175 -302 142z"/>
<path d="M6420 8343 c-61 -55 -48 -153 26 -188 119 -56 224 105 122 190 -42
36 -107 35 -148 -2z"/>
<path d="M5051 8339 c-72 -15 -122 -74 -128 -151 -14 -175 225 -238 306 -80
22 43 22 93 0 138 -33 70 -107 108 -178 93z"/>
<path d="M6131 8329 c-76 -46 -76 -152 2 -199 54 -33 136 -9 158 48 17 43 19
61 8 89 -25 68 -108 98 -168 62z"/>
<path d="M6742 8330 c-35 -22 -63 -73 -57 -106 2 -10 4 -23 4 -29 2 -19 46
-62 76 -72 137 -46 213 157 80 213 -46 19 -64 18 -103 -6z"/>
<path d="M7844 8336 c-110 -48 -131 -202 -38 -275 141 -111 331 52 243 208
-39 70 -129 100 -205 67z"/>
<path d="M5847 8253 c-45 -18 -79 -80 -67 -121 21 -69 53 -96 117 -96 59 0
103 42 110 105 4 38 0 49 -24 77 -35 42 -86 55 -136 35z"/>
<path d="M7044 8256 c-30 -13 -64 -66 -64 -100 0 -40 30 -85 67 -103 50 -25
85 -19 128 21 28 26 35 41 35 70 0 96 -80 149 -166 112z"/>
<path d="M10273 8206 c-89 -29 -145 -79 -189 -165 -63 -126 -17 -300 101 -381
166 -114 394 -42 466 149 54 143 -18 315 -159 381 -57 27 -162 35 -219 16z"/>
<path d="M2561 8197 c-89 -18 -178 -96 -211 -185 -66 -175 31 -362 212 -412
142 -38 306 47 358 187 88 236 -110 463 -359 410z"/>
<path d="M5574 8125 c-64 -27 -89 -94 -60 -157 18 -37 45 -56 86 -59 51 -4 68
2 99 33 33 34 41 84 20 131 -21 46 -96 73 -145 52z"/>
<path d="M7309 8117 c-64 -43 -64 -141 0 -184 58 -40 135 -22 166 37 41 79
-14 170 -103 170 -16 0 -44 -10 -63 -23z"/>
<path d="M8800 8077 c-50 -17 -114 -87 -130 -141 -38 -135 62 -270 198 -269
70 1 118 21 157 65 96 105 68 269 -57 334 -37 19 -125 25 -168 11z"/>
<path d="M4066 8069 c-15 -4 -46 -20 -67 -35 -140 -96 -104 -314 60 -369 208
-69 363 186 212 348 -14 16 -38 35 -53 43 -32 17 -113 24 -152 13z"/>
<path d="M8099 8057 c-102 -69 -107 -209 -8 -274 45 -30 91 -36 142 -18 86 29
124 101 104 195 -20 98 -155 153 -238 97z"/>
<path d="M4745 8056 c-115 -50 -127 -220 -21 -286 65 -40 160 -28 208 26 93
105 19 275 -119 274 -21 -1 -52 -7 -68 -14z"/>
<path d="M7567 7946 c-42 -29 -59 -63 -53 -109 12 -107 155 -139 209 -47 62
104 -57 223 -156 156z"/>
<path d="M5314 7945 c-121 -61 -50 -249 81 -214 42 12 85 62 85 99 0 97 -85
155 -166 115z"/>
<path d="M9586 7906 c-99 -37 -171 -142 -169 -247 4 -149 119 -260 266 -254
35 1 78 9 97 18 158 75 204 276 94 406 -64 77 -195 111 -288 77z"/>
<path d="M12140 7909 c-19 -5 -43 -11 -52 -14 -37 -9 -108 -58 -153 -106 -237
-253 -61 -664 290 -678 48 -2 136 19 188 46 208 104 281 364 162 569 -31 53
-115 129 -170 154 -84 38 -187 49 -265 29z"/>
<path d="M654 7891 c-105 -35 -182 -97 -237 -192 -35 -61 -50 -122 -49 -204 3
-156 87 -287 232 -358 61 -30 72 -32 170 -31 89 0 113 4 155 24 51 24 126 79
158 115 25 29 75 135 82 175 38 206 -78 406 -270 466 -71 23 -179 25 -241 5z"/>
<path d="M3236 7895 c-91 -35 -150 -106 -168 -201 -14 -77 6 -152 58 -212 97
-113 269 -122 373 -19 61 60 76 99 75 192 0 84 -16 122 -73 182 -58 61 -185
88 -265 58z"/>
<path d="M8334 7751 c-154 -71 -111 -297 58 -307 98 -5 165 56 172 157 8 114
-124 200 -230 150z"/>
<path d="M4549 7751 c-46 -15 -78 -42 -99 -85 -38 -80 -18 -157 56 -208 102
-72 242 1 248 130 3 51 -5 71 -44 116 -39 44 -107 64 -161 47z"/>
<path d="M7789 7735 c-38 -20 -59 -58 -59 -104 0 -118 171 -152 217 -44 42
102 -62 200 -158 148z"/>
<path d="M5075 7708 c-42 -40 -53 -93 -27 -138 49 -86 169 -77 208 16 16 37
11 69 -14 104 -44 59 -115 67 -167 18z"/>
<path d="M11298 7714 c-2 -1 -15 -5 -29 -7 -87 -16 -190 -101 -236 -195 -25
-51 -28 -68 -28 -152 1 -85 4 -101 30 -153 70 -141 233 -225 380 -195 211 42
339 248 280 450 -32 110 -135 214 -240 243 -30 8 -151 15 -157 9z"/>
<path d="M1580 7700 c-154 -28 -278 -168 -288 -326 -13 -204 135 -370 338
-378 146 -6 271 69 337 204 24 48 27 67 28 152 0 64 -5 102 -13 110 -6 6 -12
18 -12 26 0 7 -16 37 -36 65 -78 112 -221 171 -354 147z"/>
<path d="M9040 7650 c-182 -33 -239 -272 -90 -375 74 -51 141 -57 217 -20 217
109 111 439 -127 395z"/>
<path d="M3862 7632 c-156 -50 -203 -244 -86 -354 133 -124 354 -31 356 150 0
98 -65 184 -157 206 -16 4 -37 9 -45 11 -8 2 -39 -4 -68 -13z"/>
<path d="M10450 7509 c-263 -93 -278 -458 -23 -571 131 -58 287 -15 373 104
117 161 41 398 -150 467 -58 22 -139 22 -200 0z"/>
<path d="M2410 7513 c-38 -6 -113 -35 -128 -50 -8 -7 -22 -17 -32 -23 -28 -15
-86 -110 -98 -161 -34 -136 39 -288 168 -351 65 -32 196 -32 261 0 174 86 230
316 113 469 -31 41 -116 98 -159 106 -50 10 -99 14 -125 10z"/>
<path d="M7975 7491 c-11 -5 -30 -19 -41 -32 -63 -70 -10 -189 85 -189 111 0
157 127 73 203 -23 21 -87 31 -117 18z"/>
<path d="M4921 7476 c-12 -5 -31 -25 -42 -43 -48 -77 5 -173 96 -173 37 0 50
5 80 35 27 27 35 44 35 71 0 90 -87 147 -169 110z"/>
<path d="M8510 7413 c-97 -37 -137 -162 -80 -247 70 -103 226 -92 280 20 26
53 25 100 -3 149 -37 65 -131 103 -197 78z"/>
<path d="M4358 7390 c-104 -56 -118 -204 -24 -275 38 -29 106 -40 151 -25 43
14 104 82 107 118 6 96 -20 149 -88 182 -50 25 -98 25 -146 0z"/>
<path d="M9735 7335 c-59 -22 -111 -73 -141 -139 -79 -174 54 -369 246 -361
226 9 331 285 169 443 -17 17 -48 39 -68 49 -47 23 -154 27 -206 8z"/>
<path d="M3105 7331 c-47 -12 -87 -36 -121 -73 -54 -57 -69 -95 -69 -178 0
-111 40 -178 140 -233 31 -17 56 -22 115 -22 85 0 133 20 186 77 54 57 69 95
69 178 0 83 -15 121 -69 178 -60 65 -165 95 -251 73z"/>
<path d="M8125 7219 c-137 -38 -102 -242 38 -225 90 10 134 115 77 184 -27 33
-79 51 -115 41z"/>
<path d="M4798 7199 c-33 -12 -68 -66 -68 -103 0 -71 62 -122 134 -113 109 15
133 162 35 213 -32 16 -62 17 -101 3z"/>
<path d="M9098 7166 c-51 -32 -65 -48 -87 -96 -80 -176 101 -361 274 -281 131
61 166 209 77 328 -53 71 -188 96 -264 49z"/>
<path d="M3714 7161 c-148 -67 -171 -271 -41 -360 53 -36 81 -44 136 -42 145
5 243 164 182 296 -49 106 -172 153 -277 106z"/>
<path d="M8615 7043 c-115 -29 -150 -205 -56 -281 116 -93 288 1 266 146 -15
103 -106 161 -210 135z"/>
<path d="M4255 7016 c-45 -28 -85 -89 -85 -132 0 -132 124 -210 241 -152 109
52 112 221 6 283 -46 27 -117 28 -162 1z"/>
<path d="M8193 6919 c-43 -12 -75 -60 -75 -110 1 -67 47 -112 115 -111 52 1
88 28 106 78 31 89 -51 170 -146 143z"/>
<path d="M4731 6906 c-78 -26 -103 -129 -46 -185 76 -75 198 -25 197 80 -1 39
-25 83 -52 95 -42 18 -69 20 -99 10z"/>
<path d="M12196 6890 c-302 -108 -378 -484 -139 -690 230 -198 580 -83 657
216 46 181 -63 391 -241 463 -84 34 -199 38 -277 11z"/>
<path d="M608 6889 c-68 -11 -155 -56 -210 -111 -157 -156 -161 -401 -9 -561
78 -82 180 -127 290 -127 156 0 297 87 363 222 148 301 -100 629 -434 577z"/>
<path d="M11345 6851 c-207 -55 -320 -273 -245 -472 89 -240 401 -305 584
-121 170 169 117 464 -102 568 -61 29 -176 41 -237 25z"/>
<path d="M1487 6839 c-144 -34 -260 -169 -271 -317 -20 -274 271 -472 512
-347 121 62 191 171 196 306 10 233 -209 412 -437 358z"/>
<path d="M10564 6809 c-157 -28 -266 -164 -258 -321 12 -234 280 -368 477
-237 196 129 176 426 -36 528 -68 33 -120 41 -183 30z"/>
<path d="M2301 6788 c-74 -20 -148 -84 -189 -163 -22 -42 -26 -64 -26 -131 0
-69 4 -88 29 -138 71 -141 229 -205 375 -153 30 11 57 23 60 26 3 3 22 18 42
34 23 17 49 52 70 94 28 58 33 78 32 138 -2 205 -192 347 -393 293z"/>
<path d="M9827 6758 c-77 -16 -140 -66 -179 -142 -30 -57 -30 -165 -1 -221 63
-120 191 -176 311 -136 111 38 172 117 180 232 4 60 1 76 -22 124 -55 110
-172 169 -289 143z"/>
<path d="M3085 6749 c-62 -8 -101 -27 -147 -73 -56 -56 -73 -100 -73 -187 1
-67 4 -82 31 -125 118 -191 397 -165 468 44 62 181 -90 367 -279 341z"/>
<path d="M9189 6710 c-65 -18 -110 -59 -140 -125 -34 -74 -17 -163 43 -227 77
-82 214 -84 296 -5 45 43 64 90 65 158 1 130 -137 235 -264 199z"/>
<path d="M3702 6695 c-155 -46 -204 -234 -93 -352 34 -36 82 -56 140 -59 115
-5 207 75 218 190 8 87 -35 165 -112 204 -53 27 -101 32 -153 17z"/>
<path d="M8640 6659 c-59 -24 -101 -87 -102 -153 -1 -52 22 -97 68 -133 31
-23 47 -28 94 -28 47 0 63 5 94 28 46 36 69 80 68 134 -3 113 -119 193 -222
152z"/>
<path d="M4248 6645 c-128 -44 -146 -213 -31 -291 82 -55 215 -6 241 90 36
130 -84 245 -210 201z"/>
<path d="M8198 6603 c-102 -65 -46 -226 74 -210 137 18 133 210 -4 223 -29 3
-51 -1 -70 -13z"/>
<path d="M4683 6590 c-80 -48 -74 -158 11 -199 36 -18 46 -19 80 -9 74 23 109
125 60 179 -45 50 -100 61 -151 29z"/>
<path d="M8210 6311 c-78 -18 -114 -102 -73 -171 61 -104 223 -46 209 74 -8
64 -73 111 -136 97z"/>
<path d="M4689 6267 c-55 -54 -39 -146 30 -182 99 -50 204 60 152 159 -33 61
-131 74 -182 23z"/>
<path d="M8624 6283 c-34 -6 -103 -71 -112 -106 -23 -84 19 -174 94 -203 99
-38 204 18 220 118 20 121 -76 212 -202 191z"/>
<path d="M4301 6270 c-48 -11 -83 -40 -108 -90 -38 -73 -15 -159 55 -204 49
-32 101 -38 149 -16 74 33 114 107 99 182 -17 87 -110 148 -195 128z"/>
<path d="M9110 6218 c-84 -43 -133 -141 -116 -231 20 -108 142 -189 248 -165
141 31 212 178 147 305 -51 98 -181 140 -279 91z"/>
<path d="M3731 6215 c-168 -56 -190 -290 -36 -381 141 -82 315 20 315 185 0
143 -141 243 -279 196z"/>
<path d="M9745 6161 c-59 -18 -118 -70 -146 -129 -32 -65 -32 -169 -1 -229 50
-96 144 -148 252 -141 76 6 112 22 166 77 136 135 74 373 -111 426 -59 18 -96
17 -160 -4z"/>
<path d="M3081 6148 c-132 -50 -200 -199 -150 -332 91 -245 443 -215 494 41
22 110 -24 213 -125 275 -58 36 -148 42 -219 16z"/>
<path d="M10470 6087 c-139 -39 -223 -152 -224 -297 0 -63 5 -84 30 -134 103
-208 389 -231 525 -43 108 150 54 367 -112 452 -58 30 -157 40 -219 22z"/>
<path d="M2365 6073 c-179 -54 -267 -249 -190 -421 113 -251 467 -236 568 25
25 63 17 174 -16 239 -67 132 -222 199 -362 157z"/>
<path d="M8105 6007 c-62 -38 -81 -101 -47 -164 33 -61 135 -69 185 -13 80 90
-35 238 -138 177z"/>
<path d="M4803 5996 c-58 -26 -84 -95 -57 -152 46 -96 187 -85 214 16 25 94
-68 175 -157 136z"/>
<path d="M11299 5999 c-111 -17 -209 -90 -261 -197 -30 -60 -33 -75 -33 -152
0 -72 5 -94 28 -145 16 -33 47 -80 70 -103 171 -177 471 -128 574 95 29 63 33
81 34 159 2 211 -196 375 -412 343z"/>
<path d="M1580 5985 c-158 -33 -273 -161 -287 -319 -13 -150 66 -285 207 -354
47 -22 68 -26 145 -26 77 -1 98 3 145 25 74 36 130 86 165 150 110 202 15 445
-201 513 -67 22 -110 24 -174 11z"/>
<path d="M8504 5900 c-22 -9 -47 -27 -57 -38 -24 -26 -46 -90 -41 -117 11 -58
17 -72 42 -100 100 -111 282 -43 282 106 0 121 -118 199 -226 149z"/>
<path d="M4388 5894 c-83 -25 -133 -116 -108 -198 20 -68 79 -111 165 -121 6
-1 26 5 45 12 198 78 102 369 -102 307z"/>
<path d="M12130 5885 c-104 -28 -193 -96 -243 -184 -46 -81 -54 -109 -55 -201
-3 -380 452 -551 708 -267 64 71 101 190 93 298 -11 145 -110 279 -253 338
-64 28 -182 35 -250 16z"/>
<path d="M685 5875 c-145 -34 -253 -133 -300 -274 -27 -83 -17 -212 23 -294
40 -80 106 -147 185 -185 71 -35 100 -42 178 -43 278 -3 477 283 378 545 -69
185 -274 296 -464 251z"/>
<path d="M9012 5766 c-154 -54 -192 -265 -65 -362 145 -111 344 -16 343 163
-1 84 -55 166 -129 195 -39 15 -112 17 -149 4z"/>
<path d="M3855 5754 c-75 -25 -135 -105 -140 -182 -5 -83 44 -170 117 -208 72
-37 182 -19 241 40 92 92 81 250 -22 320 -63 43 -130 53 -196 30z"/>
<path d="M7969 5725 c-28 -15 -59 -70 -59 -105 0 -81 95 -134 170 -95 42 21
60 53 60 103 0 37 -6 50 -34 78 -27 27 -42 34 -72 34 -22 -1 -51 -7 -65 -15z"/>
<path d="M4935 5721 c-53 -22 -83 -93 -61 -146 40 -95 167 -101 210 -10 46 95
-51 196 -149 156z"/>
<path d="M9600 5595 c-57 -18 -124 -75 -152 -129 -31 -59 -31 -175 -1 -232 52
-97 122 -139 233 -139 86 0 133 18 185 72 52 54 69 98 69 183 1 64 -3 82 -26
121 -66 112 -190 161 -308 124z"/>
<path d="M3258 5586 c-45 -12 -109 -53 -135 -86 -80 -101 -68 -270 25 -352
115 -100 274 -92 373 20 167 190 -18 484 -263 418z"/>
<path d="M8342 5553 c-40 -18 -57 -34 -77 -72 -61 -119 40 -261 168 -237 48 9
96 44 119 86 26 47 20 125 -12 170 -42 59 -132 84 -198 53z"/>
<path d="M4525 5537 c-103 -59 -118 -184 -31 -264 83 -77 215 -43 259 67 53
135 -101 268 -228 197z"/>
<path d="M7803 5475 c-62 -27 -84 -102 -47 -163 30 -52 109 -69 160 -36 71 47
65 162 -11 198 -40 19 -60 19 -102 1z"/>
<path d="M5092 5458 c-68 -48 -64 -156 8 -193 71 -36 152 0 169 76 22 99 -94
176 -177 117z"/>
<path d="M10290 5396 c-93 -24 -164 -87 -205 -181 -65 -145 -1 -317 146 -392
46 -24 66 -28 135 -28 69 0 89 4 137 29 126 63 194 208 163 346 -37 162 -215
269 -376 226z"/>
<path d="M2583 5389 c-78 -14 -161 -70 -208 -142 -22 -34 -45 -116 -45 -161 0
-113 71 -225 178 -278 67 -33 197 -33 262 0 136 67 205 220 164 362 -44 153
-193 246 -351 219z"/>
<path d="M8816 5334 c-92 -32 -146 -107 -146 -203 0 -231 317 -287 408 -71 19
46 11 134 -17 181 -49 83 -157 123 -245 93z"/>
<path d="M4086 5328 c-200 -42 -229 -314 -42 -399 174 -79 355 104 276 279
-41 91 -137 140 -234 120z"/>
<path d="M5351 5259 c-109 -23 -121 -184 -16 -219 53 -18 117 6 141 52 46 88
-29 188 -125 167z"/>
<path d="M7564 5243 c-38 -34 -48 -64 -40 -109 15 -79 105 -118 174 -75 59 38
71 120 24 172 -23 25 -38 33 -78 36 -44 5 -53 2 -80 -24z"/>
<path d="M8151 5248 c-123 -33 -166 -172 -83 -266 49 -55 129 -70 194 -36 40
21 51 32 72 73 63 121 -52 265 -183 229z"/>
<path d="M4784 5240 c-43 -9 -90 -47 -109 -87 -66 -139 79 -286 218 -219 171
83 77 345 -109 306z"/>
<path d="M11044 5160 c-97 -26 -162 -76 -216 -165 -36 -59 -48 -111 -44 -197
12 -314 406 -451 619 -214 54 61 82 133 84 222 1 51 -4 97 -13 125 -62 178
-250 279 -430 229z"/>
<path d="M1795 5153 c-279 -63 -375 -407 -168 -605 113 -108 299 -127 432 -44
85 54 156 166 165 263 14 149 -71 301 -200 359 -87 38 -147 46 -229 27z"/>
<path d="M7354 5089 c-94 -26 -112 -165 -27 -210 29 -16 88 -15 118 1 31 16
55 62 55 104 0 68 -77 123 -146 105z"/>
<path d="M5593 5082 c-68 -21 -101 -99 -67 -161 47 -87 159 -83 206 8 14 28
14 39 4 74 -19 66 -78 98 -143 79z"/>
<path d="M3529 5060 c-20 -4 -56 -18 -80 -32 -160 -94 -177 -309 -34 -430 38
-33 117 -56 177 -52 139 8 242 118 241 259 0 70 -18 117 -63 169 -56 63 -158
100 -241 86z"/>
<path d="M9344 5059 c-18 -5 -55 -29 -82 -54 -184 -165 -62 -460 186 -449 164
7 277 171 232 336 -16 57 -69 119 -129 150 -42 22 -66 28 -115 27 -33 0 -75
-5 -92 -10z"/>
<path d="M5065 4970 c-60 -13 -93 -38 -119 -87 -32 -63 -8 -165 48 -205 71
-51 179 -34 228 37 74 106 13 242 -117 260 -5 1 -23 -1 -40 -5z"/>
<path d="M7838 4957 c-46 -27 -63 -50 -77 -103 -15 -55 9 -125 54 -161 82 -66
207 -39 251 53 38 79 5 177 -73 217 -46 24 -110 21 -155 -6z"/>
<path d="M7071 4956 c-47 -15 -76 -57 -76 -111 0 -132 195 -152 225 -22 11 49
-19 110 -63 128 -43 18 -47 18 -86 5z"/>
<path d="M5848 4944 c-56 -30 -73 -104 -38 -162 24 -39 62 -55 114 -49 51 7
86 42 93 94 13 97 -84 164 -169 117z"/>
<path d="M4367 4938 c-109 -23 -178 -109 -172 -214 3 -62 16 -93 55 -137 93
-107 274 -81 340 48 79 157 -55 339 -223 303z"/>
<path d="M8528 4936 c-16 -8 -28 -13 -28 -10 0 2 -14 -8 -31 -23 -143 -127
-62 -364 126 -372 188 -7 291 205 169 348 -20 23 -52 48 -71 56 -45 19 -130
19 -165 1z"/>
<path d="M11877 4909 c-105 -24 -222 -120 -269 -219 -52 -111 -54 -232 -4
-342 77 -172 273 -269 455 -227 315 72 423 470 186 688 -72 66 -160 103 -253
106 -42 1 -94 -1 -115 -6z"/>
<path d="M975 4904 c-106 -26 -189 -72 -244 -136 -173 -202 -113 -509 122
-622 40 -19 90 -38 112 -42 218 -35 420 105 465 320 49 240 -127 466 -375 481
-33 2 -69 2 -80 -1z"/>
<path d="M6776 4875 c-62 -22 -90 -75 -72 -139 15 -52 55 -81 112 -81 125 0
152 179 33 220 -28 10 -43 10 -73 0z"/>
<path d="M6132 4855 c-96 -81 -25 -227 97 -200 61 13 104 90 82 146 -18 48
-49 72 -99 77 -41 3 -52 0 -80 -23z"/>
<path d="M6465 4845 c-17 -7 -38 -21 -47 -31 -23 -27 -32 -93 -16 -123 44 -82
176 -84 206 -3 20 53 20 59 3 98 -26 58 -89 84 -146 59z"/>
<path d="M5357 4745 c-21 -7 -47 -21 -59 -32 -86 -77 -64 -225 40 -269 71 -29
142 -14 191 41 108 123 -19 314 -172 260z"/>
<path d="M7525 4738 c-56 -32 -88 -97 -80 -158 11 -74 28 -96 100 -130 78 -36
167 -3 205 76 26 52 25 90 -2 144 -31 59 -66 82 -130 87 -42 3 -62 -1 -93 -19z"/>
<path d="M9981 4744 c-95 -28 -182 -113 -211 -208 -12 -37 -15 -113 -7 -146
16 -62 22 -79 40 -105 33 -48 88 -96 137 -118 60 -27 178 -29 239 -4 208 85
258 358 94 512 -73 68 -198 98 -292 69z"/>
<path d="M2883 4739 c-127 -23 -235 -143 -246 -274 -15 -187 137 -344 323
-333 158 9 279 130 288 288 11 200 -165 355 -365 319z"/>
<path d="M4673 4593 c-105 -36 -167 -159 -132 -264 61 -181 312 -196 394 -23
78 164 -87 346 -262 287z"/>
<path d="M8172 4589 c-150 -75 -150 -298 0 -373 88 -44 176 -30 244 38 106
105 71 285 -65 342 -50 21 -129 18 -179 -7z"/>
<path d="M5704 4584 c-22 -7 -53 -29 -71 -48 -105 -114 2 -295 156 -264 83 18
135 89 126 175 -11 105 -113 171 -211 137z"/>
<path d="M7194 4585 c-60 -25 -109 -111 -98 -173 16 -88 95 -149 180 -138 154
18 199 222 66 299 -40 24 -108 29 -148 12z"/>
<path d="M9013 4576 c-102 -33 -175 -133 -176 -240 -1 -219 237 -341 414 -211
119 86 136 263 37 380 -58 68 -184 101 -275 71z"/>
<path d="M3828 4564 c-56 -17 -117 -73 -148 -133 -48 -96 -17 -241 68 -311 98
-81 250 -77 341 10 107 102 113 259 14 365 -72 77 -171 102 -275 69z"/>
<path d="M6073 4487 c-138 -50 -149 -239 -17 -302 158 -75 307 120 192 251
-47 54 -114 73 -175 51z"/>
<path d="M6828 4487 c-65 -29 -101 -87 -99 -159 1 -61 33 -112 87 -138 71 -35
148 -19 198 40 32 39 40 68 33 127 -6 57 -31 92 -87 121 -48 24 -90 27 -132 9z"/>
<path d="M6474 4460 c-100 -22 -157 -131 -116 -223 23 -51 46 -72 99 -91 78
-28 167 12 199 90 50 120 -56 250 -182 224z"/>
<path d="M10712 4389 c-254 -46 -375 -335 -232 -551 17 -26 53 -63 78 -82 242
-177 580 -4 568 291 -4 84 -8 100 -43 164 -70 130 -225 204 -371 178z"/>
<path d="M2149 4373 c-125 -32 -219 -125 -259 -255 -14 -47 -11 -152 7 -203
55 -159 227 -266 387 -238 226 39 357 252 286 464 -59 175 -245 277 -421 232z"/>
<path d="M5068 4319 c-163 -55 -194 -272 -53 -371 106 -75 248 -39 307 76 85
166 -77 355 -254 295z"/>
<path d="M7798 4321 c-171 -79 -176 -301 -9 -386 96 -49 225 -4 276 96 9 17
19 54 22 83 6 68 -33 149 -94 189 -54 35 -141 44 -195 18z"/>
<path d="M4265 4155 c-142 -42 -225 -189 -181 -322 39 -118 132 -187 250 -186
146 2 244 98 254 248 3 63 1 76 -25 125 -59 111 -186 169 -298 135z"/>
<path d="M8574 4150 c-58 -26 -120 -94 -140 -153 -58 -176 78 -354 262 -342
71 5 117 26 168 78 124 126 87 330 -75 413 -55 28 -158 30 -215 4z"/>
<path d="M9583 4160 c-79 -17 -164 -84 -202 -157 -44 -86 -44 -199 -1 -281
138 -265 532 -200 579 95 22 142 -67 288 -204 334 -45 15 -124 19 -172 9z"/>
<path d="M3260 4143 c-112 -38 -190 -130 -208 -245 -34 -223 175 -405 393
-340 131 38 216 156 216 297 0 115 -71 224 -179 275 -60 29 -160 34 -222 13z"/>
<path d="M7378 4121 c-58 -21 -79 -38 -113 -89 -24 -36 -29 -54 -29 -105 0
-80 27 -134 89 -175 89 -59 188 -53 261 16 166 154 3 430 -208 353z"/>
<path d="M5485 4111 c-150 -69 -171 -271 -39 -362 145 -99 331 -4 333 171 2
149 -159 253 -294 191z"/>
<path d="M5976 4003 c-40 -11 -97 -54 -123 -95 -22 -32 -28 -55 -30 -101 -2
-90 30 -150 101 -192 104 -61 243 -19 295 88 29 59 31 97 11 157 -20 59 -61
106 -110 127 -37 16 -114 25 -144 16z"/>
<path d="M6900 3994 c-70 -30 -130 -121 -130 -195 0 -76 50 -153 123 -191 60
-30 152 -22 209 18 106 74 123 217 36 316 -52 60 -164 84 -238 52z"/>
<path d="M11417 3975 c-158 -51 -262 -183 -274 -348 -13 -177 78 -329 243
-403 112 -51 272 -38 376 31 215 142 247 443 67 622 -60 60 -134 99 -210 113
-77 14 -124 11 -202 -15z"/>
<path d="M1383 3980 c-67 -14 -146 -56 -197 -106 -90 -89 -127 -185 -122 -312
10 -216 184 -381 403 -380 150 0 291 85 356 214 31 63 39 94 43 176 9 174
-102 335 -269 392 -58 19 -158 27 -214 16z"/>
<path d="M6455 3961 c-124 -30 -196 -181 -139 -294 45 -89 118 -126 235 -119
45 3 115 58 143 113 80 160 -64 341 -239 300z"/>
<path d="M8140 3826 c-206 -53 -272 -303 -117 -442 160 -144 413 -46 430 166
6 68 -6 113 -45 170 -59 88 -168 131 -268 106z"/>
<path d="M4757 3819 c-158 -38 -243 -207 -178 -354 29 -65 64 -102 126 -131
56 -27 133 -31 197 -12 68 20 147 105 166 178 2 8 4 41 4 72 1 161 -158 285
-315 247z"/>
<path d="M10190 3678 c-14 -5 -32 -11 -41 -13 -33 -7 -97 -54 -138 -102 -116
-135 -112 -334 10 -467 71 -78 141 -110 248 -113 54 -1 96 3 117 12 19 8 34
12 34 9 0 -3 26 13 59 36 55 39 102 93 128 150 86 184 -23 424 -219 484 -53
16 -162 18 -198 4z"/>
<path d="M2613 3660 c-67 -23 -83 -34 -140 -88 -111 -108 -131 -299 -45 -436
104 -166 326 -215 493 -110 193 121 217 406 47 559 -94 86 -240 116 -355 75z"/>
<path d="M3811 3649 c-87 -16 -170 -75 -216 -154 -26 -45 -48 -138 -40 -175 2
-14 7 -38 11 -55 16 -81 109 -182 193 -210 39 -13 132 -22 151 -15 3 1 15 3
28 6 75 14 169 93 206 174 29 64 29 187 -1 251 -40 89 -138 164 -226 175 -23
3 -46 6 -52 8 -5 1 -30 -1 -54 -5z"/>
<path d="M9045 3643 c-86 -34 -148 -96 -182 -182 -79 -200 70 -415 286 -413
67 1 73 2 131 29 63 28 116 83 147 150 68 148 6 325 -141 401 -63 32 -178 39
-241 15z"/>
<path d="M7604 3575 c-157 -47 -237 -196 -183 -341 64 -170 275 -224 411 -104
42 36 78 92 85 130 11 67 2 133 -27 190 -50 97 -183 156 -286 125z"/>
<path d="M5256 3560 c-58 -23 -98 -58 -134 -120 -36 -61 -38 -173 -4 -237 82
-156 293 -189 416 -67 52 52 71 101 71 184 0 83 -15 121 -69 178 -69 74 -183
99 -280 62z"/>
<path d="M5847 3415 c-60 -15 -113 -58 -152 -120 -27 -43 -30 -57 -30 -124 0
-84 20 -135 74 -188 94 -94 266 -96 357 -5 103 102 109 258 14 366 -60 68
-165 97 -263 71z"/>
<path d="M6995 3410 c-138 -61 -197 -219 -131 -354 106 -216 427 -181 482 54
27 119 -32 242 -144 296 -51 25 -156 27 -207 4z"/>
<path d="M6429 3364 c-59 -18 -131 -81 -158 -139 -49 -103 -14 -242 77 -312
168 -128 404 -19 417 194 3 49 -1 68 -26 120 -58 121 -182 176 -310 137z"/>
<path d="M4368 3230 c-138 -43 -221 -153 -222 -295 -2 -272 328 -411 521 -218
62 62 86 123 87 218 0 68 -4 88 -28 134 -48 93 -139 159 -230 168 -22 2 -48 5
-57 7 -9 2 -41 -5 -71 -14z"/>
<path d="M8495 3243 c-70 -16 -142 -66 -185 -128 -96 -139 -61 -331 77 -426
154 -106 364 -52 451 115 22 43 26 64 26 136 1 74 -3 91 -26 135 -49 89 -100
133 -187 159 -52 15 -113 19 -156 9z"/>
<path d="M10838 3146 c-171 -57 -283 -217 -277 -393 6 -183 123 -333 295 -378
262 -69 517 129 508 395 -3 80 -7 97 -38 165 -45 99 -154 191 -261 220 -64 17
-162 13 -227 -9z"/>
<path d="M1955 3146 c-185 -45 -315 -213 -310 -401 3 -74 19 -137 52 -193 156
-265 534 -269 695 -7 94 152 74 353 -49 482 -101 106 -250 152 -388 119z"/>
<path d="M9689 3086 c-2 -2 -30 -6 -62 -10 -235 -25 -376 -291 -269 -509 37
-76 91 -127 172 -166 47 -22 68 -26 145 -26 77 0 98 4 148 27 72 34 141 104
176 177 22 48 26 69 26 146 0 75 -5 99 -26 145 -48 102 -154 188 -253 204 -21
4 -42 8 -46 11 -4 2 -9 3 -11 1z"/>
<path d="M3285 3069 c-107 -14 -215 -91 -265 -190 -29 -56 -35 -89 -34 -179 3
-242 249 -399 486 -310 105 39 196 153 216 272 31 177 -102 371 -278 403 -56
11 -72 11 -125 4z"/>
<path d="M7860 2940 c-83 -15 -181 -85 -218 -155 -79 -154 -24 -336 129 -420
48 -27 63 -30 139 -30 102 0 153 20 219 86 66 66 86 117 86 219 0 75 -4 91
-30 139 -64 117 -201 185 -325 161z"/>
<path d="M5038 2934 c-3 -2 -13 -5 -24 -7 -68 -11 -160 -92 -196 -174 -11 -25
-22 -72 -24 -105 -14 -253 270 -412 481 -268 53 36 68 54 101 120 23 46 28 68
28 130 0 177 -127 307 -302 308 -33 0 -62 -2 -64 -4z"/>
<path d="M5727 2749 c-214 -50 -309 -295 -185 -477 132 -192 431 -166 531 47
21 45 30 165 16 216 -18 69 -90 155 -156 188 -57 29 -146 40 -206 26z"/>
<path d="M7123 2741 c-213 -72 -280 -345 -122 -503 66 -66 124 -90 219 -92 63
0 84 4 132 27 185 91 233 326 97 480 -79 91 -212 127 -326 88z"/>
<path d="M6488 2695 c-2 -2 -19 -5 -38 -8 -85 -11 -174 -79 -222 -170 -32 -59
-32 -191 -1 -258 24 -53 86 -120 135 -145 124 -65 282 -35 376 71 134 152 82
395 -103 480 -43 20 -137 39 -147 30z"/>
<path d="M8880 2576 c-265 -74 -352 -398 -160 -594 118 -120 301 -139 445 -47
180 115 214 374 69 534 -88 98 -231 141 -354 107z"/>
<path d="M3923 2561 c-173 -64 -271 -247 -226 -421 52 -204 260 -318 458 -250
99 34 160 89 206 186 85 177 9 386 -170 470 -76 36 -194 43 -268 15z"/>
<path d="M2735 2439 c-84 -12 -100 -16 -146 -39 -147 -74 -230 -212 -224 -375
2 -44 10 -99 18 -121 73 -197 273 -304 485 -260 51 11 137 62 183 109 198 201
136 535 -122 651 -30 13 -71 27 -93 30 -21 4 -41 8 -45 9 -3 2 -28 0 -56 -4z"/>
<path d="M10160 2439 c-191 -38 -336 -234 -317 -428 22 -219 195 -373 412
-366 91 3 127 13 193 51 154 89 233 277 189 447 -55 211 -262 340 -477 296z"/>
<path d="M8167 2224 c-1 -1 -15 -4 -32 -7 -63 -9 -138 -45 -187 -93 -162 -152
-141 -419 41 -546 184 -128 428 -62 524 140 46 98 45 222 -4 314 -42 79 -134
155 -218 178 -38 10 -119 19 -124 14z"/>
<path d="M4723 2206 c-181 -58 -284 -231 -250 -419 18 -98 96 -195 194 -243
49 -24 72 -29 146 -31 124 -3 218 41 288 134 151 198 59 487 -177 556 -64 18
-148 19 -201 3z"/>
<path d="M5542 1980 c-252 -82 -329 -396 -143 -588 69 -71 157 -106 261 -104
71 2 88 6 141 33 124 63 197 169 205 300 15 247 -229 435 -464 359z"/>
<path d="M7259 1984 c-184 -55 -291 -260 -234 -448 26 -84 87 -160 167 -204
176 -98 410 -19 496 166 23 49 26 70 26 147 0 76 -4 98 -27 145 -60 125 -174
201 -307 206 -43 1 -95 -4 -121 -12z"/>
<path d="M6450 1919 c-109 -17 -211 -93 -262 -196 -26 -54 -32 -78 -34 -141
-3 -154 68 -270 205 -335 234 -111 501 60 502 323 1 215 -197 383 -411 349z"/>
<path d="M9320 1855 c-105 -28 -206 -105 -259 -199 -85 -149 -54 -355 71 -479
139 -137 337 -158 503 -52 251 160 243 528 -16 687 -77 47 -209 66 -299 43z"/>
<path d="M3490 1845 c-172 -49 -286 -193 -294 -373 -10 -220 157 -406 374
-418 174 -9 317 76 394 236 28 60 31 73 31 165 0 92 -3 106 -32 167 -85 179
-287 275 -473 223z"/>
<path d="M4475 1428 c-207 -26 -348 -175 -360 -379 -13 -227 169 -422 394
-422 85 0 112 6 188 43 199 98 277 330 181 538 -27 58 -119 152 -178 182 -25
13 -46 22 -47 22 -2 -1 -8 0 -15 3 -46 14 -111 20 -163 13z"/>
<path d="M8405 1425 c-74 -19 -95 -29 -153 -74 -193 -153 -212 -428 -41 -601
212 -214 561 -135 667 152 17 45 21 76 19 145 -2 78 -6 97 -36 157 -52 106
-142 183 -256 218 -47 15 -145 16 -200 3z"/>
<path d="M5385 1155 c-183 -55 -303 -227 -290 -416 19 -285 323 -460 581 -334
62 30 146 111 175 168 142 277 -48 596 -355 595 -39 0 -89 -6 -111 -13z"/>
<path d="M7390 1151 c-135 -49 -229 -149 -263 -281 -65 -256 124 -502 389
-503 162 0 295 83 366 231 99 208 -2 459 -221 548 -68 28 -202 30 -271 5z"/>
<path d="M6455 1079 c-102 -15 -167 -48 -244 -127 -135 -138 -143 -371 -17
-525 190 -233 546 -190 679 82 30 62 32 73 31 171 0 86 -4 114 -22 153 -44 97
-107 162 -197 206 -81 40 -151 52 -230 40z"/>
</g>
</svg>
